<svg width="90" height="90" viewBox="0 0 90 90" fill="none" xmlns="http://www.w3.org/2000/svg">
<path d="M52.1094 36.4687C52.1094 33.0156 49.6719 31.1094 45.3906 31.1094H37.5156V42.2344H44.1563C49.2813 42.2188 52.1094 40.1562 52.1094 36.4687ZM80.7812 34.4688C79.2969 29.6406 79.0781 23.7187 79.25 19.1406C79.4219 14.375 75.7031 10 70.7031 10H19.3281C14.3125 10 10.6094 14.3906 10.7812 19.1406C10.9375 23.7187 10.7344 29.6406 9.25 34.4688C7.75 39.3125 5.23438 42.375 1.09375 42.7656V47.2188C5.21875 47.6094 7.75 50.6719 9.25 55.5156C10.7344 60.3437 10.9531 66.2656 10.7812 70.8437C10.6094 75.6094 14.3281 79.9844 19.3281 79.9844H70.6875C75.7031 79.9844 79.4063 75.5937 79.2344 70.8437C79.0781 66.2656 79.2813 60.3437 80.7656 55.5156C82.2656 50.6719 84.7813 47.6094 88.9062 47.2188V42.7656C84.7969 42.375 82.2656 39.3125 80.7812 34.4688ZM46.9063 63.6094H31.6094V26.375H46.8281C53.5938 26.375 58.0312 30.0312 58.0312 35.6562C58.0312 39.6094 55.0469 43.1406 51.2344 43.75V43.9531C56.4219 44.5156 59.9062 48.1094 59.9062 53.0625C59.9062 59.6406 55.0156 63.6094 46.9063 63.6094ZM45.3438 46.625H37.5156V58.875H45.6875C51.0312 58.875 53.8594 56.7344 53.8594 52.7031C53.8594 48.6875 50.9531 46.625 45.3438 46.625Z" fill="black"/>
</svg>
