<svg width="73" height="104" viewBox="0 0 73 104" fill="none" xmlns="http://www.w3.org/2000/svg">
<path d="M0.46875 19.3763C0.46875 8.67505 9.14381 0 19.8451 0H53.0924C63.7937 0 72.4688 8.67505 72.4688 19.3763C72.4688 26.1523 68.9905 32.1162 63.7218 35.5793C68.9905 39.0426 72.4688 45.0063 72.4688 51.7824C72.4688 62.4837 63.7937 71.1588 53.0924 71.1588H52.6717C47.6549 71.1588 43.0833 69.2522 39.6422 66.124V83.9773C39.6422 94.8212 30.7404 103.564 19.9495 103.564C9.27494 103.564 0.46875 94.9154 0.46875 84.1877C0.46875 77.4119 3.94674 71.4485 9.21489 67.9851C3.94674 64.5218 0.46875 58.5582 0.46875 51.7824C0.46875 45.0063 3.94704 39.0426 9.21555 35.5793C3.94704 32.1162 0.46875 26.1523 0.46875 19.3763ZM33.2953 38.753H19.8451C12.6491 38.753 6.81564 44.5866 6.81564 51.7824C6.81564 58.9506 12.6041 64.7668 19.7618 64.8117C19.7895 64.8115 19.8172 64.8115 19.8451 64.8115H33.2953V38.753ZM39.6422 51.7824C39.6422 58.9783 45.4756 64.8119 52.6717 64.8119H53.0924C60.2885 64.8119 66.1218 58.9783 66.1218 51.7824C66.1218 44.5866 60.2885 38.753 53.0924 38.753H52.6717C45.4756 38.753 39.6422 44.5866 39.6422 51.7824ZM19.8451 71.1588C19.8172 71.1588 19.7895 71.1586 19.7618 71.1586C12.6041 71.2033 6.81564 77.0195 6.81564 84.1877C6.81564 91.3572 12.727 97.2171 19.9495 97.2171C27.2884 97.2171 33.2953 91.263 33.2953 83.9773V71.1588H19.8451ZM19.8451 6.3469C12.6491 6.3469 6.81564 12.1804 6.81564 19.3763C6.81564 26.5723 12.6491 32.4056 19.8451 32.4056H33.2953V6.3469H19.8451ZM39.6422 32.4056H53.0924C60.2885 32.4056 66.1218 26.5723 66.1218 19.3763C66.1218 12.1804 60.2885 6.3469 53.0924 6.3469H39.6422V32.4056Z" fill="black"/>
</svg>
