<svg width="90" height="90" viewBox="0 0 90 90" fill="none" xmlns="http://www.w3.org/2000/svg">
<path d="M82.8897 41.4931L48.5156 7.11025C47.5641 6.15953 46.274 5.62549 44.9288 5.62549C43.5837 5.62549 42.2936 6.15953 41.342 7.11025L34.1947 14.2522L43.251 23.3085C48.0076 21.7019 52.5112 26.2563 50.8781 30.9866L59.6074 39.7159C65.6244 37.6417 70.3617 45.1651 65.8424 49.681C61.186 54.3374 53.5008 49.1765 55.9987 43.1173L47.8512 34.9804V56.3993C52.2985 58.6036 51.7641 63.7558 49.4473 66.0673C48.3154 67.1986 46.7805 67.834 45.1802 67.834C43.5799 67.834 42.045 67.1986 40.9131 66.0673C37.8246 62.9735 38.9672 57.8214 42.8906 56.2235V34.6024C39.2344 33.1065 38.5664 29.1989 39.6141 26.6923L30.6862 17.7538L7.11037 41.3331C6.15921 42.2845 5.62488 43.5746 5.62488 44.9199C5.62488 46.2652 6.15921 47.5554 7.11037 48.5067L41.4949 82.8895C42.4462 83.8402 43.736 84.3742 45.0809 84.3742C46.4257 84.3742 47.7155 83.8402 48.6668 82.8895L82.8897 48.6667C83.8408 47.7153 84.3752 46.4252 84.3752 45.0799C84.3752 43.7346 83.8408 42.4444 82.8897 41.4931Z" fill="black"/>
</svg>
