<svg width="88" height="86" viewBox="0 0 88 86" fill="none" xmlns="http://www.w3.org/2000/svg">
<path d="M29.5684 68.8555C29.5684 69.207 29.1641 69.4883 28.6543 69.4883C28.0742 69.541 27.6699 69.2598 27.6699 68.8555C27.6699 68.5039 28.0742 68.2227 28.584 68.2227C29.1113 68.1699 29.5684 68.4512 29.5684 68.8555ZM24.1016 68.0645C23.9785 68.416 24.3301 68.8203 24.8574 68.9258C25.3145 69.1016 25.8418 68.9258 25.9473 68.5742C26.0527 68.2227 25.7188 67.8184 25.1914 67.6602C24.7344 67.5371 24.2246 67.7129 24.1016 68.0645ZM31.8711 67.7656C31.3613 67.8887 31.0098 68.2227 31.0625 68.627C31.1152 68.9785 31.5723 69.207 32.0996 69.084C32.6094 68.9609 32.9609 68.627 32.9082 68.2754C32.8555 67.9414 32.3809 67.7129 31.8711 67.7656ZM43.4375 0.40625C19.0566 0.40625 0.40625 18.916 0.40625 43.2969C0.40625 62.791 12.6758 79.4727 30.2012 85.3438C32.4512 85.748 33.2422 84.3594 33.2422 83.2168C33.2422 82.127 33.1895 76.1152 33.1895 72.4238C33.1895 72.4238 20.8848 75.0605 18.3008 67.1855C18.3008 67.1855 16.2969 62.0703 13.4141 60.752C13.4141 60.752 9.38867 57.9922 13.6953 58.0449C13.6953 58.0449 18.0723 58.3965 20.4805 62.5801C24.3301 69.3652 30.7813 67.4141 33.2949 66.2539C33.6992 63.4414 34.8418 61.4902 36.1074 60.3301C26.2813 59.2402 16.3672 57.8164 16.3672 40.9062C16.3672 36.0723 17.7031 33.6465 20.5156 30.5527C20.0586 29.4102 18.5645 24.6992 20.9727 18.6172C24.6465 17.4746 33.1016 23.3633 33.1016 23.3633C36.6172 22.3789 40.3965 21.8691 44.1406 21.8691C47.8848 21.8691 51.6641 22.3789 55.1797 23.3633C55.1797 23.3633 63.6348 17.457 67.3086 18.6172C69.7168 24.7168 68.2227 29.4102 67.7656 30.5527C70.5781 33.6641 72.3008 36.0898 72.3008 40.9062C72.3008 57.8691 61.9473 59.2227 52.1211 60.3301C53.7383 61.7187 55.1094 64.3555 55.1094 68.4863C55.1094 74.4102 55.0566 81.7402 55.0566 83.1816C55.0566 84.3242 55.8652 85.7129 58.0977 85.3086C75.6758 79.4727 87.5938 62.791 87.5938 43.2969C87.5938 18.916 67.8184 0.40625 43.4375 0.40625ZM17.4922 61.0332C17.2637 61.209 17.3164 61.6133 17.6152 61.9473C17.8965 62.2285 18.3008 62.3516 18.5293 62.123C18.7578 61.9473 18.7051 61.543 18.4063 61.209C18.125 60.9277 17.7207 60.8047 17.4922 61.0332ZM15.5938 59.6094C15.4707 59.8379 15.6465 60.1191 15.998 60.2949C16.2793 60.4707 16.6309 60.418 16.7539 60.1719C16.877 59.9434 16.7012 59.6621 16.3496 59.4863C15.998 59.3809 15.7168 59.4336 15.5938 59.6094ZM21.2891 65.8672C21.0078 66.0957 21.1133 66.623 21.5176 66.957C21.9219 67.3613 22.4316 67.4141 22.6602 67.1328C22.8887 66.9043 22.7832 66.377 22.4316 66.043C22.0449 65.6387 21.5176 65.5859 21.2891 65.8672ZM19.2852 63.2832C19.0039 63.459 19.0039 63.916 19.2852 64.3203C19.5664 64.7246 20.041 64.9004 20.2695 64.7246C20.5508 64.4961 20.5508 64.0391 20.2695 63.6348C20.0234 63.2305 19.5664 63.0547 19.2852 63.2832Z" fill="black"/>
</svg>
