<svg width="90" height="81" viewBox="0 0 90 81" fill="none" xmlns="http://www.w3.org/2000/svg">
<path d="M45 46.5845C41.4493 46.5845 38.5715 43.7062 38.5715 40.1559C38.5715 36.6052 41.4493 33.7274 45 33.7274C48.5503 33.7274 51.4286 36.6052 51.4286 40.1559C51.4286 43.7062 48.5503 46.5845 45 46.5845ZM42.7385 59.4176C43.4868 60.3198 44.241 61.1898 45 62.0255C45.7586 61.1898 46.5133 60.3198 47.2612 59.4176C46.512 59.4335 45.7582 59.4416 45 59.4416C44.2415 59.4416 43.4876 59.4335 42.7385 59.4176ZM34.1888 58.8815C30.7509 58.5181 27.4687 57.9853 24.393 57.3052C24.0743 58.8035 23.8301 60.2572 23.6633 61.6552C22.854 68.4412 23.9874 72.5628 25.7143 73.5596C27.4411 74.5565 31.5769 73.4773 37.0492 69.3836C38.1763 68.5402 39.3133 67.602 40.4516 66.5765C38.3246 64.2532 36.2224 61.6771 34.1888 58.8815ZM65.607 57.3052C62.5312 57.9853 59.2487 58.5181 55.8112 58.8815C53.7776 61.6771 51.675 64.2532 49.548 66.5765C50.6867 67.602 51.8233 68.5402 52.9509 69.3836C58.4229 73.4773 62.559 74.5565 64.2857 73.5596C66.0124 72.5628 67.146 68.4412 66.3365 61.6552C66.1697 60.2572 65.9254 58.8035 65.607 57.3052ZM71.8234 55.6423C74.2946 66.9523 72.9934 75.9553 67.5 79.1267C62.0062 82.2986 53.559 78.924 45 71.1288C36.4406 78.924 27.9936 82.2986 22.5 79.1267C17.0063 75.9553 15.7053 66.9523 18.1765 55.6423C7.14616 52.1276 0 46.4992 0 40.1559C0 33.8122 7.14616 28.1841 18.1765 24.6693C15.7053 13.3593 17.0063 4.35641 22.5 1.18469C27.9936 -1.98704 36.4406 1.38762 45 9.18276C53.559 1.38762 62.0062 -1.98704 67.5 1.18469C72.9934 4.35641 74.2946 13.3593 71.8234 24.6693C82.8536 28.1841 90 33.8122 90 40.1559C90 46.4992 82.8536 52.1276 71.8234 55.6423ZM40.4516 13.735C39.3133 12.7097 38.1763 11.7714 37.0492 10.928C31.5769 6.83407 27.4411 5.75501 25.7143 6.752C23.9874 7.74898 22.854 11.8702 23.6633 18.6562C23.8301 20.0542 24.0743 21.508 24.393 23.0065C27.4687 22.3263 30.7509 21.7936 34.1888 21.4303C36.2224 18.6347 38.3246 16.0585 40.4516 13.735ZM55.8112 21.4303C59.2487 21.7936 62.5312 22.3263 65.607 23.0065C65.9254 21.508 66.1697 20.0542 66.3365 18.6562C67.146 11.8702 66.0124 7.74898 64.2857 6.752C62.559 5.75501 58.4229 6.83407 52.9509 10.928C51.8233 11.7714 50.6867 12.7097 49.548 13.735C51.675 16.0585 53.7776 18.6347 55.8112 21.4303ZM47.2612 20.894C46.5133 19.9919 45.7586 19.1217 45 18.286C44.241 19.1217 43.4868 19.9919 42.7385 20.894C43.4876 20.8781 44.2415 20.8701 45 20.8701C45.7582 20.8701 46.512 20.8781 47.2612 20.894ZM29.4494 51.7449C29.0611 51.1042 28.6772 50.4553 28.298 49.7988C27.9189 49.1418 27.5489 48.4848 27.1881 47.8282C26.7808 48.9271 26.4046 50.0156 26.0602 51.0905C27.1633 51.3301 28.2941 51.5482 29.4494 51.7449ZM37.7311 52.7456C40.101 52.9218 42.5319 53.0131 45 53.0131C47.4682 53.0131 49.8986 52.9218 52.2686 52.7456C53.6062 50.7811 54.9005 48.7218 56.1347 46.5845C57.3686 44.4468 58.5052 42.2962 59.5372 40.1559C58.5052 38.0152 57.3686 35.8647 56.1347 33.7274C54.9005 31.5897 53.6062 29.5304 52.2686 27.5661C49.8986 27.3898 47.4682 27.2987 45 27.2987C42.5319 27.2987 40.101 27.3898 37.7311 27.5661C36.3936 29.5304 35.0995 31.5897 33.8653 33.7274C32.6312 35.8647 31.4949 38.0152 30.4626 40.1559C31.4949 42.2962 32.6312 44.4468 33.8653 46.5845C35.0995 48.7218 36.3936 50.7811 37.7311 52.7456ZM62.8119 32.4832C63.219 31.3844 63.5953 30.2958 63.9399 29.2209C62.8367 28.9817 61.7057 28.7633 60.5503 28.5666C60.9386 29.2074 61.3226 29.8562 61.7019 30.513C62.0812 31.1697 62.451 31.8267 62.8119 32.4832ZM19.8448 30.8843C18.3876 31.3575 17.0065 31.8729 15.7125 32.4275C9.43096 35.1198 6.42856 38.1618 6.42856 40.1559C6.42856 42.1496 9.43096 45.1921 15.7125 47.8839C17.0065 48.4385 18.3876 48.9541 19.8448 49.4272C20.7935 46.4234 21.9734 43.3145 23.3776 40.1559C21.9734 36.9969 20.7935 33.8881 19.8448 30.8843ZM26.0602 29.2209C26.4046 30.2958 26.7808 31.3844 27.1881 32.4832C27.5489 31.8267 27.9189 31.1697 28.298 30.513C28.6772 29.8562 29.0611 29.2074 29.4494 28.5666C28.2941 28.7633 27.1633 28.9817 26.0602 29.2209ZM70.155 49.4272C71.6122 48.9541 72.9934 48.4385 74.2873 47.8839C80.5689 45.1921 83.5714 42.1496 83.5714 40.1559C83.5714 38.1618 80.5689 35.1198 74.2873 32.4275C72.9934 31.8729 71.6122 31.3575 70.155 30.8843C69.2062 33.8881 68.0267 36.9969 66.6223 40.1559C68.0267 43.3145 69.2062 46.4234 70.155 49.4272ZM63.9399 51.0905C63.5953 50.0156 63.219 48.9271 62.8119 47.8282C62.451 48.4848 62.0812 49.1418 61.7019 49.7988C61.3226 50.4553 60.9386 51.1042 60.5503 51.7449C61.7057 51.5482 62.8367 51.3301 63.9399 51.0905Z" fill="black"/>
</svg>
