<svg width="90" height="68" viewBox="0 0 90 68" fill="none" xmlns="http://www.w3.org/2000/svg">
<path d="M42.4473 51.037C42.4052 51.1213 42.363 51.1888 42.4473 51.037ZM77.4817 38.8025C74.6533 38.8015 71.8626 39.4511 69.3253 40.7009C68.4956 39.0275 67.6378 37.5649 67.4972 36.468C67.3284 35.1883 67.1456 34.429 67.3425 32.9102C67.5394 31.3914 68.4253 29.2398 68.4112 29.0851C68.3972 28.9305 68.2144 28.157 66.4003 28.1429C64.5862 28.1289 63.0252 28.4945 62.8438 28.9726C62.5234 29.8464 62.2742 30.7447 62.0985 31.6586C61.7751 33.3039 58.4717 39.1821 56.6014 42.2478C55.9827 41.0525 55.4623 39.9978 55.3498 39.154C55.1811 37.8743 54.9983 37.1149 55.1951 35.5962C55.392 34.0774 56.278 31.9258 56.2639 31.7711C56.2498 31.6164 56.067 30.843 54.2544 30.8289C52.4417 30.8149 50.8793 31.1805 50.6965 31.6586C50.5137 32.1367 50.3168 33.2618 49.9512 34.3446C49.5856 35.4274 45.1853 45.215 44.0336 47.7604C43.443 49.0541 42.9367 50.0948 42.5711 50.7979C42.5148 50.9104 42.4727 50.9807 42.4445 51.037C42.4867 50.9667 42.5148 50.8963 42.5148 50.9245C42.2055 51.5292 42.0226 51.8667 42.0226 51.8667V51.8807C41.7836 52.3307 41.5164 52.7385 41.3898 52.7385C41.3055 52.7385 41.1226 51.5573 41.432 49.9401C42.093 46.5369 43.6539 41.2494 43.6399 41.0665C43.6258 40.9681 43.9352 40.054 42.6133 39.5618C41.3336 39.0978 40.8695 39.8712 40.757 39.8712C40.6445 39.8712 40.5601 40.1525 40.5601 40.1525C40.5601 40.1525 41.9805 34.1899 37.8334 34.1899C35.2459 34.1899 31.6458 37.0306 29.8767 39.604C28.7658 40.2087 26.3611 41.5165 23.8298 42.9087C22.8595 43.4431 21.861 43.9916 20.9188 44.5119C20.8485 44.4416 20.7922 44.3713 20.7219 44.3009C15.6889 38.929 6.3963 35.1321 6.79005 27.9179C6.93068 25.2882 7.84475 18.3835 24.6595 10.0021C38.4409 3.13953 49.459 5.02393 51.356 9.2146C54.0842 15.1912 45.4652 26.3148 31.1536 27.9179C25.6987 28.5226 22.8313 26.4132 22.1141 25.6257C21.3688 24.796 21.2563 24.7538 20.9751 24.9085C20.511 25.1617 20.8063 25.8929 20.9751 26.3289C21.3969 27.4398 23.1548 29.4086 26.1487 30.393C28.7784 31.2508 35.1741 31.7289 42.9072 28.7336C51.5951 25.3867 58.3578 16.0631 56.375 8.25834C54.3556 0.327 41.2042 -2.27459 28.7686 2.14108C21.359 4.7708 13.3461 8.90523 7.58178 14.2912C0.734669 20.7038 -0.360813 26.2867 0.0891924 28.6211C1.69093 36.904 13.107 42.3041 17.676 46.2978C17.451 46.4244 17.24 46.5369 17.0431 46.6494C14.7523 47.7885 6.04895 52.3448 3.87064 57.1542C1.40968 62.6105 4.27846 66.52 6.16145 67.0543C12.0382 68.6856 18.0557 65.7465 21.2887 60.923C24.5217 56.0995 24.1293 49.7995 22.6387 46.9307C22.6246 46.8885 22.5965 46.8604 22.5824 46.8182C23.1731 46.4666 23.7777 46.115 24.3824 45.7635C25.5482 45.0744 26.6873 44.4416 27.6858 43.8931C27.1233 45.4119 26.7154 47.24 26.5045 49.8838C26.2514 52.9776 27.5311 56.9855 29.1905 58.5605C29.9217 59.2496 30.8063 59.2636 31.3547 59.2636C33.2954 59.2636 34.1672 57.6605 35.1362 55.748C36.3315 53.4136 37.3862 50.6995 37.3862 50.6995C37.3862 50.6995 36.0643 58.0402 39.6784 58.0402C40.9989 58.0402 42.3208 56.3386 42.9128 55.4667V55.4808C42.9128 55.4808 42.9409 55.4245 43.0113 55.312C43.1519 55.1011 43.2222 54.9745 43.2222 54.9745V54.9323C43.7566 54.0183 44.9238 51.9229 46.6802 48.4635C48.9584 43.9916 51.1367 38.4087 51.1367 38.4087C51.3472 39.6359 51.6384 40.848 52.0085 42.0369C52.4023 43.3728 53.232 44.8353 53.8929 46.2557C53.3586 46.9869 53.0351 47.4088 53.0351 47.4088C53.0361 47.4196 53.0412 47.4296 53.0492 47.4369C52.6273 47.9994 52.1492 48.6041 51.657 49.1948C49.8584 51.3323 47.7194 53.7792 47.4382 54.4823C47.1007 55.312 47.1851 55.9308 47.8319 56.4089C48.3101 56.7745 49.1538 56.8308 50.0384 56.7605C51.6556 56.648 52.7947 56.2542 53.3431 56.0011C54.3542 55.6385 55.3098 55.1368 56.1823 54.5104C57.9402 53.2167 59.0089 51.3604 58.9105 48.9135C58.8543 47.5635 58.4183 46.2135 57.8839 44.9478C58.0386 44.7228 58.2074 44.4838 58.3621 44.2447C61.1451 40.1806 63.2966 35.7199 63.2966 35.7199C63.5071 36.9472 63.7984 38.1592 64.1685 39.3481C64.506 40.4872 65.1656 41.7387 65.7703 42.9622C63.156 45.0856 61.5388 47.5466 60.9763 49.1638C59.9357 52.1592 60.7513 53.5092 62.2841 53.8186C62.9732 53.9592 63.9576 53.6357 64.6889 53.3264C65.7749 52.9646 66.7989 52.4382 67.725 51.7654C69.4828 50.4716 71.183 48.6576 71.0705 46.1966C71.0283 45.0856 70.7189 43.9747 70.3111 42.9059C72.5189 41.9778 75.3863 41.4715 79.0426 41.8934C86.8727 42.8075 88.4055 47.7013 88.1102 49.7404C87.8149 51.7795 86.1696 52.9186 85.6211 53.2561C85.0727 53.5936 84.9039 53.7201 84.9461 53.9732C85.0164 54.3389 85.2696 54.3248 85.7336 54.2404C86.3805 54.1279 89.8385 52.581 89.9932 48.7982C90.2182 44.0169 85.6211 38.7574 77.4774 38.7996L77.4817 38.8025ZM17.1275 59.1511C14.5414 61.9777 10.9132 63.0465 9.35368 62.1465C7.68022 61.1733 8.34116 57.0136 11.532 54.0014C13.4726 52.1732 15.9744 50.4857 17.6338 49.4451C18.0135 49.2201 18.5619 48.8826 19.2369 48.4748C19.3494 48.4044 19.4057 48.3763 19.4057 48.3763C19.5322 48.2919 19.6729 48.2216 19.8135 48.1372C20.9793 52.4123 19.8557 56.1811 17.1275 59.1483V59.1511ZM36.0221 46.2978C35.1221 48.5057 33.225 54.1308 32.0719 53.8354C31.0875 53.5823 30.4828 49.2932 31.875 45.0744C32.5782 42.9509 34.0688 40.4197 34.9548 39.4353C36.3737 37.8462 37.9346 37.3399 38.3003 37.9727C38.7925 38.8024 36.5846 44.9197 36.0221 46.2978ZM51.6317 53.7511C51.252 53.9479 50.9004 54.0745 50.7317 53.9761C50.6051 53.9058 50.8863 53.6386 50.8863 53.6386C50.8863 53.6386 52.8411 51.5432 53.6145 50.587C54.0645 50.0245 54.5848 49.3635 55.1459 48.6323C55.1459 48.7026 55.16 48.7729 55.16 48.8573C55.1417 51.3745 52.7243 53.0761 51.6274 53.7511H51.6317ZM63.6665 51.0088C63.3852 50.812 63.4274 50.151 64.3696 48.0979C64.7353 47.2963 65.5776 45.9463 67.0415 44.6525C67.2072 45.1423 67.2973 45.6544 67.3087 46.1713C67.2947 49.3354 65.0306 50.5166 63.6679 51.0088H63.6665Z" fill="black"/>
</svg>
