<svg width="258" height="245" viewBox="0 0 258 245" fill="none" xmlns="http://www.w3.org/2000/svg">
<g filter="url(#filter0_i_185_1763)">
<path d="M170.335 185.385C175.966 176.676 186.698 171.11 192.134 162.277C193.977 159.282 194.989 155.711 194.862 151.892C194.535 142.082 186.36 134.234 176.55 134.234H175.896C165.759 134.561 157.911 143.063 158.238 153.2V153.2C158.773 161.216 161.152 170.249 156.657 176.908C145.75 193.064 130.616 205.719 109.842 216.638C92.5112 225.794 74.5262 229.064 56.5412 226.775C41.8262 224.813 30.3812 218.273 23.1872 207.482C12.7232 191.459 11.7422 174.128 20.5712 156.797C25.5247 146.89 32.7646 139.062 38.6451 133.975C41.0638 131.883 42.306 129.061 41.4503 125.98V125.98C39.9731 120.66 33.4025 117.728 29.2807 121.401C-8.11895 154.73 -2.938 196.276 10.4342 216.638C21.2252 232.988 43.1342 243.125 67.3322 243.125C73.8722 243.125 80.4122 242.471 86.9522 240.836C123.06 233.784 151.624 214.321 170.335 185.385Z" fill="url(#paint0_radial_185_1763)"/>
<path d="M236.064 130.31C211.212 101.207 174.588 85.184 132.732 85.184V85.184C129.526 85.184 126.712 83.2412 124.493 80.9262C121.193 77.4823 116.511 75.374 111.477 75.374H110.823C100.686 75.701 92.8381 84.203 93.1651 94.34C93.4921 104.15 101.667 111.998 111.477 111.998H112.131C117.229 111.766 121.835 109.4 125.017 105.829C127.39 103.166 130.473 100.88 134.04 100.88V100.88C158.892 100.88 182.436 108.074 203.691 122.135C220.041 132.926 231.813 146.987 238.353 163.991C243.912 177.725 243.585 191.132 237.699 202.577C228.543 219.908 213.174 229.391 192.9 229.391C182.56 229.391 172.629 226.939 165.691 224.458C162.71 223.392 159.727 223.573 157.299 225.604V225.604C152.626 229.511 153.021 237.425 158.8 239.351C168.737 242.664 178.69 244.433 188.322 244.433C219.714 244.433 242.931 227.102 251.76 209.771C261.243 190.805 260.589 158.105 236.064 130.31Z" fill="url(#paint1_radial_185_1763)"/>
<path d="M69.9484 176.417C70.2754 186.227 78.4504 194.075 88.2604 194.075H88.9144C99.0514 193.748 106.899 185.246 106.572 175.109C106.245 165.299 98.0704 157.451 88.2604 157.451H87.6064V157.451C86.2899 157.451 84.7906 156.91 84.1312 155.77C71.5834 134.088 66.4103 110.559 68.3134 85.1842C69.6214 65.5642 76.1614 48.5602 87.6064 34.4992C97.0894 22.4002 115.401 16.5142 127.827 16.1872C159.162 15.596 174.195 50.8138 177.518 70.3845C178.082 73.7083 179.984 76.4321 183.222 77.372V77.372C188.421 78.8814 194.077 74.9579 193.207 69.6146C185.789 24.0519 155.593 0.491211 126.519 0.491211C97.0894 0.491211 69.9484 21.7462 59.1574 53.1382C45.4673 91.2323 52.3627 127.972 67.5177 158.181C70.2342 163.595 69.3999 170.384 69.9484 176.417V176.417Z" fill="url(#paint2_radial_185_1763)"/>
</g>
<defs>
<filter id="filter0_i_185_1763" x="0.461914" y="0.491211" width="256.966" height="243.942" filterUnits="userSpaceOnUse" color-interpolation-filters="sRGB">
<feFlood flood-opacity="0" result="BackgroundImageFix"/>
<feBlend mode="normal" in="SourceGraphic" in2="BackgroundImageFix" result="shape"/>
<feColorMatrix in="SourceAlpha" type="matrix" values="0 0 0 0 0 0 0 0 0 0 0 0 0 0 0 0 0 0 127 0" result="hardAlpha"/>
<feOffset dy="1"/>
<feComposite in2="hardAlpha" operator="arithmetic" k2="-1" k3="1"/>
<feColorMatrix type="matrix" values="0 0 0 0 0.285926 0 0 0 0 0.115451 0 0 0 0 0.791667 0 0 0 1 0"/>
<feBlend mode="normal" in2="shape" result="effect1_innerShadow_185_1763"/>
</filter>
<radialGradient id="paint0_radial_185_1763" cx="0" cy="0" r="1" gradientUnits="userSpaceOnUse" gradientTransform="translate(83.3799 171.155) rotate(122.281) scale(64.8522 83.4073)">
<stop stop-color="#FFF2F2"/>
<stop offset="1" stop-color="#5200FF" stop-opacity="0.83"/>
</radialGradient>
<radialGradient id="paint1_radial_185_1763" cx="0" cy="0" r="1" gradientUnits="userSpaceOnUse" gradientTransform="translate(163.219 150.234) rotate(112.186) scale(77.5014 77.1893)">
<stop stop-color="#FFF2F2"/>
<stop offset="1" stop-color="#5200FF" stop-opacity="0.83"/>
</radialGradient>
<radialGradient id="paint2_radial_185_1763" cx="0" cy="0" r="1" gradientUnits="userSpaceOnUse" gradientTransform="translate(112.672 86.2111) rotate(107.196) scale(86.0189 69.1989)">
<stop stop-color="#FFF2F2"/>
<stop offset="1" stop-color="#5200FF" stop-opacity="0.83"/>
</radialGradient>
</defs>
</svg>
