<svg width="190" height="43" viewBox="0 0 190 43" fill="none" xmlns="http://www.w3.org/2000/svg">
<g filter="url(#filter0_i_194_77)">
<path d="M25.4878 32.743C27.1048 30.5294 30.3476 28.5658 30.2609 25.8258V25.8258C30.21 24.2172 28.9374 22.9304 27.4104 22.9304H27.3086C25.7306 22.984 24.509 24.3781 24.5599 26.0403V26.0403C24.6431 27.3547 25.0207 28.8256 24.3095 29.9342C22.612 32.5803 20.2574 34.6534 17.0264 36.4424C14.3286 37.9438 11.529 38.48 8.72945 38.1046C6.43887 37.7829 4.65731 36.7105 3.53748 34.9411C1.90862 32.3137 1.75592 29.4719 3.13026 26.6301C3.90619 24.9954 5.04252 23.7058 5.96095 22.8721C6.32978 22.5374 6.5202 22.1045 6.39259 21.623V21.623C6.15994 20.7452 5.07078 20.2701 4.41234 20.8955C-1.32886 26.3487 -0.520417 33.1177 1.55231 36.4424C3.23207 39.1234 6.64248 40.7856 10.4092 40.7856C11.4272 40.7856 12.4453 40.6783 13.4633 40.4102C18.5012 39.3738 22.5956 36.7023 25.4878 32.743Z" fill="url(#paint0_radial_194_77)"/>
<path d="M36.6748 22.2869C32.8062 17.5147 27.1053 14.8874 20.5898 14.8874V14.8874C20.0924 14.8874 19.6578 14.5822 19.3268 14.2109C18.8121 13.6334 18.0747 13.2788 17.2812 13.2788H17.1794C15.6015 13.3324 14.3798 14.7265 14.4307 16.3887C14.4816 17.9973 15.7542 19.2842 17.2812 19.2842H17.383C18.1887 19.2456 18.9153 18.8462 19.4112 18.2458C19.7636 17.8192 20.2401 17.4611 20.7934 17.4611V17.4611C24.662 17.4611 28.3269 18.6407 31.6355 20.9464C34.1806 22.7158 36.013 25.0214 37.0311 27.8096C37.8964 30.0617 37.8455 32.26 36.9293 34.1367C35.504 36.9785 33.1117 38.5335 29.9557 38.5335C28.3798 38.5335 26.8648 38.148 25.7885 37.75C25.2857 37.5641 24.7702 37.6002 24.3671 37.9537V37.9537C23.6419 38.5895 23.7075 39.8345 24.6168 40.1558C26.1738 40.706 27.7339 41 29.2431 41C34.1297 41 37.7437 38.1582 39.1181 35.3163C40.5942 32.2064 40.4924 26.8445 36.6748 22.2869Z" fill="url(#paint1_radial_194_77)"/>
<path d="M10.8162 29.8472C10.8671 31.4558 12.1397 32.7426 13.6667 32.7426H13.7685C15.3465 32.689 16.5681 31.2949 16.5172 29.6327C16.4663 28.0241 15.1938 26.7373 13.6667 26.7373H13.5649V26.7373C13.3621 26.7373 13.1284 26.6515 13.0306 26.4737C11.0726 22.915 10.2652 19.0529 10.5617 14.8874C10.7653 11.6702 11.7834 8.88204 13.5649 6.57641C15.0411 4.59249 17.8916 3.62735 19.8258 3.57373C24.7317 3.47622 27.0706 9.31854 27.5695 12.516C27.6498 13.0301 27.938 13.4505 28.4356 13.6024V13.6024C29.2465 13.8499 30.1406 13.2442 30.014 12.4059C28.8782 4.88797 24.1623 1 19.6222 1C15.0411 1 10.8162 4.48525 9.13649 9.63271C7.00689 15.8749 8.07737 21.8953 10.4331 26.8468C10.8614 27.747 10.7305 28.854 10.8162 29.8472V29.8472Z" fill="url(#paint2_radial_194_77)"/>
</g>
<path d="M68.08 33L63.28 24.66H60.67V33H57.25V12.15H64.45C66.05 12.15 67.4 12.43 68.5 12.99C69.62 13.55 70.45 14.3 70.99 15.24C71.55 16.18 71.83 17.23 71.83 18.39C71.83 19.75 71.43 20.99 70.63 22.11C69.85 23.21 68.64 23.96 67 24.36L72.16 33H68.08ZM60.67 21.93H64.45C65.73 21.93 66.69 21.61 67.33 20.97C67.99 20.33 68.32 19.47 68.32 18.39C68.32 17.31 68 16.47 67.36 15.87C66.72 15.25 65.75 14.94 64.45 14.94H60.67V21.93ZM91.3551 24.33C91.3551 24.95 91.3151 25.51 91.2351 26.01H78.6051C78.7051 27.33 79.1951 28.39 80.0751 29.19C80.9551 29.99 82.0351 30.39 83.3151 30.39C85.1551 30.39 86.4551 29.62 87.2151 28.08H90.9051C90.4051 29.6 89.4951 30.85 88.1751 31.83C86.8751 32.79 85.2551 33.27 83.3151 33.27C81.7351 33.27 80.3151 32.92 79.0551 32.22C77.8151 31.5 76.8351 30.5 76.1151 29.22C75.4151 27.92 75.0651 26.42 75.0651 24.72C75.0651 23.02 75.4051 21.53 76.0851 20.25C76.7851 18.95 77.7551 17.95 78.9951 17.25C80.2551 16.55 81.6951 16.2 83.3151 16.2C84.8751 16.2 86.2651 16.54 87.4851 17.22C88.7051 17.9 89.6551 18.86 90.3351 20.1C91.0151 21.32 91.3551 22.73 91.3551 24.33ZM87.7851 23.25C87.7651 21.99 87.3151 20.98 86.4351 20.22C85.5551 19.46 84.4651 19.08 83.1651 19.08C81.9851 19.08 80.9751 19.46 80.1351 20.22C79.2951 20.96 78.7951 21.97 78.6351 23.25H87.7851ZM93.5807 24.66C93.5807 23 93.9207 21.53 94.6007 20.25C95.3007 18.97 96.2407 17.98 97.4207 17.28C98.6207 16.56 99.9507 16.2 101.411 16.2C102.491 16.2 103.551 16.44 104.591 16.92C105.651 17.38 106.491 18 107.111 18.78V10.8H110.561V33H107.111V30.51C106.551 31.31 105.771 31.97 104.771 32.49C103.791 33.01 102.661 33.27 101.381 33.27C99.9407 33.27 98.6207 32.91 97.4207 32.19C96.2407 31.45 95.3007 30.43 94.6007 29.13C93.9207 27.81 93.5807 26.32 93.5807 24.66ZM107.111 24.72C107.111 23.58 106.871 22.59 106.391 21.75C105.931 20.91 105.321 20.27 104.561 19.83C103.801 19.39 102.981 19.17 102.101 19.17C101.221 19.17 100.401 19.39 99.6407 19.83C98.8807 20.25 98.2607 20.88 97.7807 21.72C97.3207 22.54 97.0907 23.52 97.0907 24.66C97.0907 25.8 97.3207 26.8 97.7807 27.66C98.2607 28.52 98.8807 29.18 99.6407 29.64C100.421 30.08 101.241 30.3 102.101 30.3C102.981 30.3 103.801 30.08 104.561 29.64C105.321 29.2 105.931 28.56 106.391 27.72C106.871 26.86 107.111 25.86 107.111 24.72ZM130.023 16.47V33H126.603V31.05C126.063 31.73 125.353 32.27 124.473 32.67C123.613 33.05 122.693 33.24 121.713 33.24C120.413 33.24 119.243 32.97 118.203 32.43C117.183 31.89 116.373 31.09 115.773 30.03C115.193 28.97 114.903 27.69 114.903 26.19V16.47H118.293V25.68C118.293 27.16 118.663 28.3 119.403 29.1C120.143 29.88 121.153 30.27 122.433 30.27C123.713 30.27 124.723 29.88 125.463 29.1C126.223 28.3 126.603 27.16 126.603 25.68V16.47H130.023ZM141.615 24.63L146.955 33H143.085L139.515 27.39L136.155 33H132.585L137.925 24.87L132.585 16.47H136.455L140.025 22.08L143.385 16.47H146.955L141.615 24.63Z" fill="url(#paint3_radial_194_77)"/>
<defs>
<filter id="filter0_i_194_77" x="0" y="1" width="40.0005" height="40" filterUnits="userSpaceOnUse" color-interpolation-filters="sRGB">
<feFlood flood-opacity="0" result="BackgroundImageFix"/>
<feBlend mode="normal" in="SourceGraphic" in2="BackgroundImageFix" result="shape"/>
<feColorMatrix in="SourceAlpha" type="matrix" values="0 0 0 0 0 0 0 0 0 0 0 0 0 0 0 0 0 0 127 0" result="hardAlpha"/>
<feOffset dy="1"/>
<feComposite in2="hardAlpha" operator="arithmetic" k2="-1" k3="1"/>
<feColorMatrix type="matrix" values="0 0 0 0 0.285926 0 0 0 0 0.115451 0 0 0 0 0.791667 0 0 0 1 0"/>
<feBlend mode="normal" in2="shape" result="effect1_innerShadow_194_77"/>
</filter>
<radialGradient id="paint0_radial_194_77" cx="0" cy="0" r="1" gradientUnits="userSpaceOnUse" gradientTransform="translate(12.9072 28.9844) rotate(120.951) scale(10.4831 13.1703)">
<stop stop-color="#FFF2F2"/>
<stop offset="1" stop-color="#5200FF" stop-opacity="0.83"/>
</radialGradient>
<radialGradient id="paint1_radial_194_77" cx="0" cy="0" r="1" gradientUnits="userSpaceOnUse" gradientTransform="translate(25.3355 25.5539) rotate(111.164) scale(12.6183 12.101)">
<stop stop-color="#FFF2F2"/>
<stop offset="1" stop-color="#5200FF" stop-opacity="0.83"/>
</radialGradient>
<radialGradient id="paint2_radial_194_77" cx="0" cy="0" r="1" gradientUnits="userSpaceOnUse" gradientTransform="translate(17.4668 15.0558) rotate(106.372) scale(14.0438 10.8185)">
<stop stop-color="#FFF2F2"/>
<stop offset="1" stop-color="#5200FF" stop-opacity="0.83"/>
</radialGradient>
<radialGradient id="paint3_radial_194_77" cx="0" cy="0" r="1" gradientUnits="userSpaceOnUse" gradientTransform="translate(167 -56.5) rotate(129.918) scale(122.291 167.744)">
<stop stop-color="#FFF2F2"/>
<stop offset="1" stop-color="#5200FF" stop-opacity="0.83"/>
</radialGradient>
</defs>
</svg>
