<svg width="107" height="103" viewBox="0 0 107 103" fill="none" xmlns="http://www.w3.org/2000/svg">
<g filter="url(#filter0_d_193_46)">
<g filter="url(#filter1_i_193_46)">
<path d="M63.0588 71.3049C65.9435 67.571 71.697 64.356 71.5398 59.6402V59.6402C71.4498 56.9402 69.1998 54.7802 66.4998 54.7802H66.3198C63.5298 54.8702 61.3698 57.2102 61.4598 60.0002V60.0002C61.6069 62.2063 62.2618 64.6925 61.0246 66.5251C58.0226 70.9719 53.8573 74.4548 48.1398 77.4602C43.3698 79.9802 38.4198 80.8802 33.4698 80.2502C29.4198 79.7102 26.2698 77.9102 24.2898 74.9402C21.4098 70.5302 21.1398 65.7602 23.5698 60.9902C24.9332 58.2635 26.9258 56.1089 28.5443 54.7088C29.21 54.133 29.5519 53.3563 29.3164 52.5082V52.5082C28.9098 51.0441 27.1014 50.2371 25.9669 51.248C15.6735 60.4211 17.0994 71.8559 20.7798 77.4602C23.7498 81.9602 29.7798 84.7502 36.4398 84.7502C38.2398 84.7502 40.0398 84.5702 41.8398 84.1202C50.7231 82.3852 57.9474 77.9208 63.0588 71.3049Z" fill="url(#paint0_radial_193_46)"/>
<path d="M82.8796 53.7001C76.0396 45.6901 65.9596 41.2801 54.4396 41.2801V41.2801C53.5571 41.2801 52.7826 40.7454 52.172 40.1082C51.2636 39.1603 49.9749 38.5801 48.5896 38.5801H48.4096C45.6196 38.6701 43.4596 41.0101 43.5496 43.8001C43.6396 46.5001 45.8896 48.6601 48.5896 48.6601H48.7696C50.1728 48.5963 51.4404 47.9449 52.3161 46.9622C52.9692 46.2293 53.8179 45.6001 54.7996 45.6001V45.6001C61.6396 45.6001 68.1196 47.5801 73.9696 51.4501C78.4696 54.4201 81.7096 58.2901 83.5096 62.9701C85.0396 66.7501 84.9496 70.4401 83.3296 73.5901C80.8096 78.3601 76.5796 80.9701 70.9996 80.9701C68.1537 80.9701 65.4204 80.2952 63.5109 79.6123C62.6905 79.3189 61.8694 79.3688 61.201 79.9277V79.9277C59.9149 81.0031 60.0238 83.1812 61.6142 83.7114C64.3491 84.6232 67.0886 85.1101 69.7396 85.1101C78.3796 85.1101 84.7696 80.3401 87.1996 75.5701C89.8096 70.3501 89.6296 61.3501 82.8796 53.7001Z" fill="url(#paint1_radial_193_46)"/>
<path d="M37.1597 66.3902C37.2497 69.0902 39.4997 71.2502 42.1997 71.2502H42.3797C45.1697 71.1602 47.3297 68.8202 47.2397 66.0302C47.1497 63.3302 44.8997 61.1702 42.1997 61.1702H42.0197V61.1702C41.6573 61.1702 41.2447 61.0212 41.0632 60.7076C37.6097 54.7399 36.1859 48.2641 36.7097 41.2802C37.0697 35.8802 38.8697 31.2002 42.0197 27.3302C44.6297 24.0002 49.6697 22.3802 53.0897 22.2902C61.7139 22.1275 65.8515 31.8205 66.7659 37.2069C66.9212 38.1217 67.4447 38.8714 68.3358 39.1301V39.1301C69.7668 39.5455 71.3236 38.4656 71.0841 36.995C69.0423 24.4548 60.7316 17.9702 52.7297 17.9702C44.6297 17.9702 37.1597 23.8202 34.1897 32.4602C30.4218 42.9448 32.3196 53.0567 36.4907 61.371C37.2384 62.8613 37.0087 64.7297 37.1597 66.3902V66.3902Z" fill="url(#paint2_radial_193_46)"/>
</g>
</g>
<defs>
<filter id="filter0_d_193_46" x="-9.3" y="-11.3" width="124.6" height="124.6" filterUnits="userSpaceOnUse" color-interpolation-filters="sRGB">
<feFlood flood-opacity="0" result="BackgroundImageFix"/>
<feColorMatrix in="SourceAlpha" type="matrix" values="0 0 0 0 0 0 0 0 0 0 0 0 0 0 0 0 0 0 127 0" result="hardAlpha"/>
<feOffset/>
<feGaussianBlur stdDeviation="8.65"/>
<feColorMatrix type="matrix" values="0 0 0 0 0 0 0 0 0 0 0 0 0 0 0 0 0 0 0.25 0"/>
<feBlend mode="normal" in2="BackgroundImageFix" result="effect1_dropShadow_193_46"/>
<feBlend mode="normal" in="SourceGraphic" in2="effect1_dropShadow_193_46" result="shape"/>
</filter>
<filter id="filter1_i_193_46" x="18.0352" y="17.9702" width="70.7241" height="67.1396" filterUnits="userSpaceOnUse" color-interpolation-filters="sRGB">
<feFlood flood-opacity="0" result="BackgroundImageFix"/>
<feBlend mode="normal" in="SourceGraphic" in2="BackgroundImageFix" result="shape"/>
<feColorMatrix in="SourceAlpha" type="matrix" values="0 0 0 0 0 0 0 0 0 0 0 0 0 0 0 0 0 0 127 0" result="hardAlpha"/>
<feOffset dy="1"/>
<feComposite in2="hardAlpha" operator="arithmetic" k2="-1" k3="1"/>
<feColorMatrix type="matrix" values="0 0 0 0 0.285926 0 0 0 0 0.115451 0 0 0 0 0.791667 0 0 0 1 0"/>
<feBlend mode="normal" in2="shape" result="effect1_innerShadow_193_46"/>
</filter>
<radialGradient id="paint0_radial_193_46" cx="0" cy="0" r="1" gradientUnits="userSpaceOnUse" gradientTransform="translate(40.8566 64.9419) rotate(122.281) scale(17.8492 22.9561)">
<stop stop-color="#FFF2F2"/>
<stop offset="1" stop-color="#5200FF" stop-opacity="0.83"/>
</radialGradient>
<radialGradient id="paint1_radial_193_46" cx="0" cy="0" r="1" gradientUnits="userSpaceOnUse" gradientTransform="translate(62.8305 59.1838) rotate(112.186) scale(21.3307 21.2448)">
<stop stop-color="#FFF2F2"/>
<stop offset="1" stop-color="#5200FF" stop-opacity="0.83"/>
</radialGradient>
<radialGradient id="paint2_radial_193_46" cx="0" cy="0" r="1" gradientUnits="userSpaceOnUse" gradientTransform="translate(48.9186 41.5628) rotate(107.196) scale(23.6749 19.0456)">
<stop stop-color="#FFF2F2"/>
<stop offset="1" stop-color="#5200FF" stop-opacity="0.83"/>
</radialGradient>
</defs>
</svg>
