<svg width="90" height="84" viewBox="0 0 90 84" fill="none" xmlns="http://www.w3.org/2000/svg">
<path d="M36.9375 25.2321C35.55 24.6552 34.05 24.4244 32.5125 24.4628C31.5375 24.4628 30.675 24.4628 29.9625 24.5013C29.2125 24.4628 28.6875 24.5013 28.425 24.5398V37.4634C28.95 37.5019 29.4375 37.5403 29.8875 37.5403H31.875C33.3375 37.5403 34.8 37.3095 36.1875 36.848C37.3875 36.5018 38.4375 35.771 39.2625 34.8094C40.05 33.8479 40.425 32.5401 40.425 30.8477C40.4625 29.6554 40.1625 28.463 39.5625 27.4245C38.925 26.4245 38.025 25.6552 36.9375 25.2321ZM74.0625 -6H15.9375C7.125 -6 0 1.30801 0 10.3469V67.6531C0 76.692 7.125 84 15.9375 84H74.0625C82.875 84 90 76.692 90 67.6531V10.3469C90 1.30801 82.875 -6 74.0625 -6ZM46.3463 38.8096C44.85 40.9635 42.75 42.579 40.3125 43.5021C37.7625 44.4637 34.95 44.8099 31.875 44.8099C30.975 44.8099 30.375 44.8099 30 44.7714C29.625 44.7329 29.1 44.7329 28.3875 44.7329V57.0758C28.425 57.345 28.2375 57.5796 27.975 57.6181H20.7C20.4 57.6181 20.25 57.4604 20.25 57.1142V17.5395C20.25 17.2702 20.3625 17.1164 20.625 17.1164C21.2625 17.1164 21.8625 17.1164 22.725 17.0779C23.625 17.0394 24.5625 17.0394 25.575 17.001C26.5875 16.9625 27.675 16.9625 28.8375 16.9241C30 16.8856 31.125 16.8856 32.25 16.8856C35.325 16.8856 37.875 17.2702 39.975 18.078C41.85 18.7318 43.575 19.8088 45 21.2319C46.2 22.4628 47.1375 23.9628 47.7375 25.6167C48.2962 27.2322 48.5962 28.8861 48.5962 30.6169C48.6 33.9248 47.85 36.6557 46.3463 38.8096ZM72.9375 53.7718C71.8875 55.3103 70.4212 56.4988 68.7375 57.1989C66.9 58.0027 64.65 58.422 61.9462 58.422C60.225 58.422 58.5337 58.272 56.85 57.9258C55.5375 57.6912 54.225 57.2719 53.025 56.695C52.7625 56.545 52.5713 56.2757 52.6088 55.968V49.2754C52.6088 49.1639 52.65 49.0062 52.7625 48.9293C52.8712 48.8523 52.9875 48.8908 53.1 48.9677C54.5625 49.8524 56.1 50.4716 57.75 50.8524C59.1712 51.2371 60.6712 51.4294 62.175 51.4294C63.6 51.4294 64.6125 51.2332 65.2875 50.887C65.8875 50.6178 66.3 49.9639 66.3 49.2716C66.3 48.7293 66 48.2331 65.4 47.7331C64.8 47.2369 63.5663 46.6599 61.7288 45.9214C59.8163 45.2291 58.0575 44.306 56.4038 43.1559C55.2413 42.3059 54.27 41.1943 53.55 39.8866C52.9537 38.6558 52.6537 37.3095 52.6912 35.9595C52.6912 34.3056 53.1413 32.7286 53.97 31.3054C54.9075 29.7669 56.2912 28.5361 57.9037 27.7668C59.6625 26.8476 61.875 26.4245 64.5375 26.4245C66.075 26.4245 67.65 26.5399 69.1875 26.7706C70.3125 26.9245 71.4 27.2322 72.4125 27.6553C72.5587 27.6937 72.7125 27.8476 72.7875 28.0015C72.825 28.1553 72.8625 28.3092 72.8625 28.463V34.7325C72.8625 34.8864 72.7875 35.0402 72.675 35.1171C72.3375 35.1941 72.15 35.1941 72 35.1171C70.875 34.5017 69.675 34.0786 68.4 33.8094C67.0125 33.5017 65.625 33.3094 64.2 33.3094C63.45 33.2709 62.6625 33.3863 61.9462 33.5786C61.4625 33.694 61.0462 33.9632 60.7837 34.3479C60.5962 34.6556 60.4837 35.0402 60.4837 35.3864C60.4837 35.7326 60.6337 36.0787 60.8625 36.3864C61.2 36.8095 61.6462 37.1557 62.1375 37.4249C62.9962 37.8865 63.9 38.3096 64.7962 38.6942C66.825 39.3866 68.775 40.3481 70.575 41.502C71.8125 42.3059 72.825 43.3867 73.5337 44.6945C74.1337 45.9176 74.4338 47.2715 74.3963 48.6523C74.4375 50.464 73.9125 52.2679 72.9375 53.7718Z" fill="black"/>
</svg>
