<svg width="90" height="54" viewBox="0 0 90 54" fill="none" xmlns="http://www.w3.org/2000/svg">
<path d="M45 0C33 0 25.5 6 22.5 18C27 12 32.25 9.75 38.25 11.25C41.6737 12.105 44.1187 14.5875 46.83 17.34C51.2437 21.8175 56.3475 27 67.5 27C79.5 27 87 21 90 9C85.5 15 80.25 17.25 74.25 15.75C70.8263 14.895 68.3813 12.4125 65.67 9.66C61.26 5.1825 56.1562 0 45 0ZM22.5 27C10.5 27 3 33 0 45C4.5 39 9.75 36.75 15.75 38.25C19.1738 39.105 21.6187 41.5875 24.33 44.34C28.7437 48.8175 33.8475 54 45 54C57 54 64.5 48 67.5 36C63 42 57.75 44.25 51.75 42.75C48.3262 41.895 45.8812 39.4125 43.17 36.66C38.76 32.1825 33.6562 27 22.5 27Z" fill="black"/>
</svg>
